<svg width="243" height="39" viewBox="0 0 243 39" fill="none" xmlns="http://www.w3.org/2000/svg">
<path d="M9.5313 1.67969V26.3281H12.2852V28.0078H0V26.3281H3.32031V1.67969H0V0H27.8906V1.67969H24.5703V26.3281H27.8906V28.0078H15.6055V26.3281H18.3594V1.67969H9.5313ZM38.8672 9.39451H42.9297C43.2031 9.39451 43.3659 9.47921 43.418 9.64841C43.431 9.77861 43.444 9.92841 43.457 10.0976C43.4701 10.2669 43.4896 10.4622 43.5156 10.6836C43.5547 10.9049 43.6133 11.1849 43.6914 11.5234C43.7956 11.875 43.8997 12.2331 44.0039 12.5976C44.1081 12.9622 44.2057 13.3659 44.2969 13.8086C44.375 14.056 44.4792 14.4531 44.6094 15C45.4297 18.3073 46.1068 20.7812 46.6406 22.4219C47.1875 24.0755 47.6367 25.3125 47.9883 26.1328C48.3268 26.9401 48.4961 27.4414 48.4961 27.6367C48.4961 27.8841 48.2292 28.0078 47.6953 28.0078H43.6133C43.418 28.0078 43.2747 27.793 43.1836 27.3633C43.1185 26.9466 42.9427 26.25 42.6563 25.2734C42.5391 24.9609 42.3828 24.4596 42.1875 23.7695C42.0443 23.2096 41.8685 22.6107 41.6602 21.9726C40.3451 26.2956 38.2357 28.457 35.332 28.457C34.2904 28.457 33.444 28.1771 32.793 27.6172C32.1549 27.0443 31.6992 26.3607 31.4258 25.5664C31.1654 24.7721 31.0352 23.9974 31.0352 23.2422C31.0352 22.539 31.2044 21.7969 31.543 21.0156C31.8945 20.2213 32.3437 19.4336 32.8906 18.6523C33.4505 17.8581 33.9128 17.2461 34.2773 16.8164C34.6549 16.3737 35.2474 15.7031 36.0547 14.8047C36.4063 14.388 36.8099 13.9453 37.2656 13.4766C37.7344 12.9948 38.0469 12.6497 38.2031 12.4414C38.3724 12.22 38.457 12.0052 38.457 11.7969C38.457 11.4713 38.3594 11.0221 38.1641 10.4492C38.0859 10.1758 38.0469 9.90881 38.0469 9.64841C38.0469 9.47921 38.3203 9.39451 38.8672 9.39451ZM39.1797 13.3594C37.6302 15.039 36.569 16.5104 35.9961 17.7734C35.4362 19.0364 35.1563 20.0065 35.1563 20.6836C35.1563 21.3607 35.3581 21.9857 35.7617 22.5586C36.1523 23.1185 36.7448 23.3984 37.5391 23.3984C38.2422 23.3984 38.8542 23.2226 39.375 22.8711C39.8958 22.5195 40.2865 22.0898 40.5469 21.582C40.8073 21.0612 40.9375 20.5859 40.9375 20.1562C40.9375 19.7005 40.7227 18.7305 40.293 17.2461C40.0326 16.4127 39.8633 15.8268 39.7852 15.4883C39.6289 14.7851 39.4271 14.0755 39.1797 13.3594ZM55.2734 25.1172C55.2865 25.2474 55.3385 25.7031 55.4297 26.4844C55.6641 28.3203 55.7813 30.4557 55.7813 32.8906C55.7813 34.9088 55.5599 36.3086 55.1172 37.0898C54.6745 37.8711 54.056 38.2617 53.2617 38.2617C52.7279 38.2617 52.4219 38.125 52.3437 37.8516V37.6172C52.3698 37.1094 52.3828 36.0156 52.3828 34.3359C52.3828 32.526 52.3177 30.7487 52.1875 29.0039C52.0964 27.9232 51.9792 26.6601 51.8359 25.2148C51.6927 23.7695 51.5951 22.6888 51.543 21.9726C51.4909 21.2435 51.4648 20.4427 51.4648 19.5703C51.4648 17.3698 51.9206 15.3971 52.832 13.6523C53.7565 11.8945 54.8307 10.5208 56.0547 9.53121C57.2786 8.54166 58.2552 8.04687 58.9844 8.04687C59.6094 8.04687 60.332 8.38541 61.1523 9.06251C61.9727 9.72661 62.7604 10.6445 63.5156 11.8164C64.2839 12.9752 64.9089 14.3099 65.3906 15.8203C65.8854 17.3307 66.1328 18.8997 66.1328 20.5273C66.1328 22.0768 65.8919 23.47 65.4102 24.707C64.9284 25.931 64.2578 26.8815 63.3984 27.5586C62.5521 28.2617 61.6016 28.6133 60.5469 28.6133C59.5573 28.6133 58.5612 28.2682 57.5586 27.5781C56.556 26.888 55.7943 26.0677 55.2734 25.1172ZM56.3867 11.7969C55.7617 12.7344 55.3255 13.6719 55.0781 14.6094C54.8307 15.5338 54.707 16.6667 54.707 18.0078C54.707 19.5703 54.9805 20.9766 55.5273 22.2266C56.0872 23.4896 56.7578 24.4661 57.5391 25.1562C58.3333 25.8333 59.056 26.1719 59.707 26.1719C60.1888 26.1719 60.6445 25.944 61.0742 25.4883C61.5169 25.0456 61.7773 24.2448 61.8555 23.0859V21.6016C61.7904 20.5989 61.5104 19.414 61.0156 18.0469C60.5078 16.6667 59.8503 15.4036 59.043 14.2578C58.2487 13.0989 57.3633 12.2786 56.3867 11.7969ZM69.8047 19.8828C69.8047 17.8125 70.2409 15.8659 71.1133 14.043C71.9857 12.207 73.0078 10.7422 74.1797 9.64841C75.3516 8.55469 76.2826 8.00781 76.9727 8.00781C77.4674 8.00781 78.1315 8.20963 78.9648 8.61328C79.7982 9.0039 80.6315 9.58981 81.4648 10.3711C82.2982 11.1523 83.0013 12.1549 83.5742 13.3789C84.1341 14.5898 84.4141 15.9831 84.4141 17.5586C84.4141 18.7565 84.1732 20.0456 83.6914 21.4258C83.2227 22.793 82.6042 24.0885 81.8359 25.3125C81.0677 26.5234 80.2604 27.5065 79.4141 28.2617C78.5677 29.0039 77.819 29.375 77.168 29.375C76.2956 29.375 75.2669 28.8737 74.082 27.8711C72.9102 26.8815 71.901 25.651 71.0547 24.1797C70.2214 22.6953 69.8047 21.263 69.8047 19.8828ZM73.8867 12.4805C73.0664 13.5221 72.6563 14.5898 72.6563 15.6836C72.6563 16.7643 72.9297 17.9883 73.4766 19.3555C74.0365 20.7226 74.9089 21.9075 76.0937 22.9101C77.2656 23.8997 78.7174 24.3945 80.4492 24.3945C80.9049 23.5351 81.1328 22.5651 81.1328 21.4844C81.1328 20.039 80.8398 18.6588 80.2539 17.3437C79.6419 16.0156 78.7891 14.9154 77.6953 14.043C76.6016 13.1575 75.332 12.6367 73.8867 12.4805ZM94.5898 12.5195C94.4206 13.0924 94.0299 14.069 93.418 15.4492C92.4935 17.4935 91.888 19.0169 91.6016 20.0195C91.3151 21.0091 91.1719 22.0052 91.1719 23.0078C91.1719 24.0234 91.3997 25.0195 91.8555 25.9961C92.0117 26.3086 92.1875 26.6081 92.3828 26.8945C92.5911 27.194 92.6953 27.4154 92.6953 27.5586C92.6953 27.8841 92.4414 28.0469 91.9336 28.0469C91.7253 28.0469 91.3802 28.0404 90.8984 28.0273C90.4297 28.0143 90.0716 28.0078 89.8242 28.0078C89.6159 28.0078 89.2969 28.0208 88.8672 28.0469C88.4505 28.0729 88.1445 28.0859 87.9492 28.0859C87.4154 28.0859 87.0703 28.0013 86.9141 27.832C86.7318 27.6758 86.6406 27.3047 86.6406 26.7187C86.6406 25.1953 87.0052 23.6979 87.7344 22.2266C88.4635 20.7552 89.5573 18.8932 91.0156 16.6406C91.4063 16.0286 91.7969 15.4232 92.1875 14.8242C92.5911 14.2122 92.9362 13.6068 93.2227 13.0078C93.5091 12.4088 93.6523 11.888 93.6523 11.4453C93.6523 11.1198 93.5742 10.7161 93.418 10.2344V9.76561C93.5221 9.51821 93.7891 9.39451 94.2187 9.39451H97.8125C98.3464 9.39451 98.6849 9.45961 98.8281 9.58981C98.9844 9.73311 99.0625 10.0195 99.0625 10.4492C99.0625 11.9336 99.6355 14.4661 100.782 18.0469C101.549 20.4427 102.167 22.2526 102.636 23.4766C103.105 24.6875 103.483 25.612 103.77 26.25C104.07 26.888 104.218 27.2851 104.218 27.4414C104.218 27.6758 104.14 27.832 103.984 27.9101C103.828 27.9752 103.535 28.0078 103.105 28.0078C102.701 27.9818 102.155 27.9687 101.465 27.9687C100.774 27.9687 100.241 27.9818 99.8635 28.0078C99.5375 28.0078 99.2708 27.9362 99.0625 27.793C98.8672 27.6497 98.6589 27.3437 98.4375 26.875C98.2161 26.4062 97.9753 25.7487 97.7148 24.9023C97.4544 24.043 97.0508 22.5976 96.5039 20.5664C96.3737 20.0586 96.2695 19.6745 96.1914 19.414C96.1263 19.1536 96.0547 18.8672 95.9766 18.5547C95.6641 17.4479 95.3841 16.3411 95.1367 15.2344C95.0195 14.5833 94.9284 14.1211 94.8633 13.8476C94.7201 13.2747 94.6289 12.832 94.5898 12.5195ZM111.739 17.207L118.535 13.164C118.627 11.6797 118.691 10.7552 118.73 10.3906C118.77 10.026 118.868 9.77211 119.023 9.62891C119.179 9.47261 119.466 9.39451 119.882 9.39451H123.359C123.71 9.39451 123.886 9.60941 123.886 10.039C123.886 10.1953 123.821 10.7422 123.691 11.6797C123.366 13.5417 123.203 15.3841 123.203 17.207C123.203 20.4492 123.418 23.6588 123.848 26.8359C123.848 27.2656 123.763 27.5716 123.593 27.7539C123.424 27.9232 122.975 28.0078 122.246 28.0078H119.882C119.532 28.0078 119.239 27.8711 119.004 27.5976C118.77 27.3112 118.58 26.7057 118.438 25.7812C118.308 24.8437 118.243 23.4635 118.243 21.6406C118.243 19.414 118.313 17.1354 118.457 14.8047L111.739 18.8476C111.817 21.6211 112.025 24.2838 112.364 26.8359C112.364 27.2656 112.278 27.5716 112.109 27.7539C111.94 27.9232 111.49 28.0078 110.761 28.0078H108.418C108.041 28.0078 107.76 27.9101 107.578 27.7148C107.396 27.5065 107.285 27.0833 107.246 26.4453C107.207 25.3646 107.155 24.5247 107.09 23.9258C106.96 21.9987 106.895 19.8112 106.895 17.3633C106.895 15.5924 106.927 14.1341 106.993 12.9883C107.058 11.8294 107.149 11.0091 107.266 10.5273C107.382 10.0325 107.52 9.72001 107.675 9.58981C107.832 9.45961 108.047 9.39451 108.321 9.39451H111.895C112.233 9.39451 112.402 9.60941 112.402 10.039C112.402 10.1562 112.337 10.7031 112.207 11.6797C111.894 13.7239 111.739 15.5664 111.739 17.207ZM151.133 1.67969V26.3281H153.887V28.0078H141.602V26.3281H144.921V1.67969H141.602V0H169.492V1.67969H166.171V26.3281H169.492V28.0078H157.208V26.3281H159.96V1.67969H151.133ZM180.02 26.6406H181.622C181.96 22.7995 182.48 19.4792 183.184 16.6797C183.484 15.4297 183.829 14.2773 184.219 13.2226C184.623 12.168 185.253 11.1979 186.113 10.3125C186.972 9.41401 188.073 8.96484 189.415 8.96484C190.678 8.96484 191.309 9.23181 191.309 9.76561C191.309 9.93491 191.276 10.1107 191.21 10.293C191.145 10.4622 191.035 10.6966 190.878 10.9961C190.722 11.2956 190.625 11.4844 190.585 11.5625C190.429 11.9922 190.346 12.5911 190.333 13.3594C190.333 14.0495 190.305 14.5833 190.253 14.9609L189.335 15C189.128 14.3099 188.62 13.9648 187.812 13.9648C187.148 13.9648 186.497 14.3229 185.859 15.039C185.221 15.7552 184.674 17.1614 184.219 19.2578C183.777 21.3542 183.555 24.2969 183.555 28.0859C183.555 30.5208 183.6 32.1159 183.691 32.8711C183.77 33.6133 183.9 34.388 184.083 35.1953C184.265 36.0026 184.355 36.9271 184.355 37.9687C184.355 38.5807 183.203 38.8867 180.898 38.8867C180.585 38.8867 180.391 38.8151 180.312 38.6719C180.221 38.5156 180.176 38.2812 180.176 37.9687C180.176 36.7578 180.214 35.6966 180.292 34.7851C180.371 33.8737 180.468 33.0273 180.585 32.2461C180.703 31.4779 180.82 30.7357 180.938 30.0195C181.094 29.056 181.184 28.3854 181.21 28.0078H178.906C177.916 28.0078 177.122 28.0273 176.523 28.0664C175.938 28.1055 175.625 28.125 175.585 28.125C175.403 28.125 175.286 28.0729 175.234 27.9687C175.195 27.8516 175.176 27.6237 175.176 27.2851V26.4062C175.098 24.375 174.779 21.9075 174.219 19.0039C173.672 16.1002 173.021 13.6198 172.266 11.5625C171.967 10.7422 171.816 10.1562 171.816 9.80471C171.816 9.60941 171.914 9.48571 172.109 9.43361C172.305 9.38151 172.689 9.35551 173.262 9.35551C173.64 9.38151 174.225 9.39451 175.02 9.39451H176.016C176.576 9.39451 176.933 9.48571 177.089 9.66801C177.259 9.85021 177.395 10.293 177.499 10.9961C177.514 11.0872 177.604 11.543 177.773 12.3633C177.839 12.6758 177.936 13.1966 178.066 13.9258C178.21 14.6419 178.34 15.319 178.458 15.957C178.678 17.0377 178.971 18.7565 179.335 21.1133C179.701 23.47 179.902 25.0846 179.941 25.957C179.941 26.1263 179.967 26.3542 180.02 26.6406ZM204.667 18.9648L198.223 15.4883V17.9687C198.223 20.2213 198.314 22.1094 198.497 23.6328C198.679 25.1562 198.77 26.2239 198.77 26.8359C198.77 27.3047 198.658 27.6172 198.438 27.7734C198.23 27.9297 197.637 28.0078 196.661 28.0078H194.766C194.428 28.0078 194.167 27.8906 193.984 27.6562C193.815 27.4219 193.685 26.9466 193.594 26.2305C193.503 25.5013 193.444 24.4661 193.417 23.125C193.391 21.7838 193.378 19.8633 193.378 17.3633C193.378 14.8242 193.418 12.9948 193.497 11.875C193.588 10.7552 193.723 10.0586 193.906 9.78511C194.076 9.49871 194.361 9.35551 194.766 9.35551C194.909 9.35551 195.118 9.36201 195.391 9.37501C195.665 9.38801 195.859 9.39451 195.977 9.39451C196.381 9.39451 196.979 9.36851 197.773 9.31641H198.223C198.562 9.36851 198.73 9.58331 198.73 9.96091C198.73 10.7682 198.672 11.2956 198.555 11.543C198.451 11.7904 198.366 12.5586 198.301 13.8476L204.648 17.3633V15.6055C204.648 13.7174 204.707 12.3307 204.824 11.4453C204.941 10.5599 205.105 9.99351 205.312 9.74611C205.52 9.48571 205.807 9.35551 206.171 9.35551C206.302 9.35551 206.485 9.36201 206.719 9.37501C206.967 9.38801 207.18 9.39451 207.363 9.39451C208.196 9.39451 208.816 9.36851 209.219 9.31641H209.648C209.999 9.38151 210.176 9.59631 210.176 9.96091C210.176 10.1302 210.131 10.4232 210.04 10.8398C209.948 11.2435 209.857 11.7252 209.766 12.2851C209.583 13.6654 209.492 15.306 209.492 17.207C209.492 18.9909 209.531 20.4362 209.609 21.543C209.701 22.6497 209.811 23.7109 209.941 24.7266C210.072 25.7292 210.137 26.4323 210.137 26.8359C210.137 27.3047 210.027 27.6172 209.805 27.7734C209.584 27.9297 208.997 28.0078 208.046 28.0078H206.171C205.781 28.0078 205.495 27.9167 205.312 27.7344C205.13 27.539 204.999 27.168 204.921 26.6211C204.83 26.0612 204.773 25.3125 204.747 24.375C204.721 23.4245 204.694 21.6211 204.667 18.9648ZM230.742 26.6601H236.992C236.966 26.3476 236.914 25.7357 236.835 24.8242C236.77 23.8997 236.713 22.8125 236.661 21.5625C236.609 20.3125 236.583 18.8997 236.583 17.3242C236.583 14.9154 236.628 13.1445 236.719 12.0117C236.823 10.8659 236.972 10.1367 237.167 9.82421C237.376 9.51171 237.688 9.35551 238.105 9.35551C238.236 9.35551 238.438 9.36201 238.71 9.37501C238.971 9.38801 239.173 9.39451 239.316 9.39451C240.137 9.39451 240.748 9.36851 241.152 9.31641H241.583C241.934 9.38151 242.109 9.59631 242.109 9.96091C242.109 10.1432 242.064 10.4362 241.973 10.8398C241.882 11.2435 241.797 11.7383 241.719 12.3242C241.523 13.5091 241.426 15.1367 241.426 17.207C241.426 18.8997 241.464 20.1888 241.542 21.0742C241.621 21.9596 241.732 22.9557 241.876 24.0625C242.006 25.1562 242.07 26.0807 242.07 26.8359C242.07 27.3047 241.954 27.6172 241.719 27.7734C241.498 27.9297 240.924 28.0078 239.999 28.0078H215.997C215.618 28.0078 215.339 27.9167 215.156 27.7344C214.986 27.5521 214.851 27.1289 214.747 26.4648C214.629 25.7877 214.557 24.7786 214.531 23.4375C214.492 22.1094 214.473 20.0716 214.473 17.3242C214.473 14.9154 214.518 13.1445 214.609 12.0117C214.701 10.8659 214.844 10.1367 215.04 9.82421C215.247 9.51171 215.567 9.35551 215.997 9.35551C216.14 9.35551 216.342 9.36201 216.602 9.37501C216.861 9.38801 217.057 9.39451 217.188 9.39451C218.02 9.39451 218.632 9.36851 219.023 9.31641H219.473C219.825 9.38151 219.999 9.59631 219.999 9.96091C219.999 10.1432 219.948 10.4362 219.844 10.8398C219.753 11.2435 219.667 11.7383 219.589 12.3242C219.407 13.5091 219.316 15.1367 219.316 17.207C219.316 19.7851 219.434 22.9362 219.667 26.6601H225.917C225.671 24.7331 225.546 21.6211 225.546 17.3242C225.546 14.8633 225.611 13.0534 225.742 11.8945C225.872 10.7226 226.035 10.0065 226.23 9.74611C226.438 9.48571 226.731 9.35551 227.109 9.35551C227.253 9.35551 227.429 9.36201 227.637 9.37501C227.846 9.38801 228.072 9.39451 228.32 9.39451C228.749 9.39451 229.361 9.36851 230.156 9.31641H230.546C230.898 9.36851 231.074 9.58331 231.074 9.96091C231.074 10.2213 230.996 10.8463 230.839 11.8359C230.54 13.6588 230.391 15.4492 230.391 17.207C230.391 18.7565 230.455 20.625 230.585 22.8125C230.611 23.3463 230.645 24.0039 230.684 24.7851C230.71 25.5794 230.729 26.2044 230.742 26.6601Z" fill="white"/>
</svg>
